<?xml version="1.0" encoding="iso-8859-1"?>
<!-- Generator: Adobe Illustrator 19.0.0, SVG Export Plug-In . SVG Version: 6.00 Build 0)  -->
<svg version="1.1" id="Layer_1" xmlns="http://www.w3.org/2000/svg" xmlns:xlink="http://www.w3.org/1999/xlink" x="0px" y="0px"
	 viewBox="0 0 463.079 463.079" style="enable-background:new 0 0 463.079 463.079;" xml:space="preserve">
<g id="XMLID_1565_">
	<path id="XMLID_512_" style="fill:#E0E0E2;" d="M413.879,15c0-8.284-6.716-15-15-15H64.2c-8.284,0-15,6.716-15,15v433.079
		c0,8.284,6.716,15,15,15h334.679c8.284,0,15-6.716,15-15L413.879,15L413.879,15z"/>
	<path id="XMLID_515_" style="fill:#D8D7DA;" d="M413.879,15c0-8.284-6.716-15-15-15H226.27v463.079h172.608c8.284,0,15-6.716,15-15
		V15H413.879z"/>
	<path id="XMLID_1790_" style="fill:#E4187A;" d="M348.028,152.173c0,2.467-1.261,4.763-3.342,6.088
		c-2.082,1.324-4.696,1.493-6.93,0.448l-39.167-18.325c-1.938-0.907-4.178-0.907-6.115,0l-39.167,18.325
		c-2.235,1.046-4.849,0.877-6.93-0.448c-2.082-1.324-3.342-3.62-3.342-6.088V1H348.03v151.173H348.028z"/>
	<path id="XMLID_516_" style="fill:#C61469;" d="M295.531,0.999v138.703c1.044,0,2.089,0.227,3.058,0.68l39.167,18.325
		c2.235,1.045,4.849,0.877,6.93-0.448c2.081-1.324,3.342-3.62,3.342-6.088V0.999H295.531z"/>
</g>
<g>
</g>
<g>
</g>
<g>
</g>
<g>
</g>
<g>
</g>
<g>
</g>
<g>
</g>
<g>
</g>
<g>
</g>
<g>
</g>
<g>
</g>
<g>
</g>
<g>
</g>
<g>
</g>
<g>
</g>
</svg>
