<?xml version="1.0" encoding="iso-8859-1"?>
<!-- Generator: Adobe Illustrator 19.0.0, SVG Export Plug-In . SVG Version: 6.00 Build 0)  -->
<svg version="1.1" id="Layer_1" xmlns="http://www.w3.org/2000/svg" xmlns:xlink="http://www.w3.org/1999/xlink" x="0px" y="0px"
	 viewBox="0 0 458.501 458.501" style="enable-background:new 0 0 458.501 458.501;" xml:space="preserve">
<g id="XMLID_1317_">
	<g id="XMLID_870_">
		<path id="XMLID_1681_" style="fill:#F072AE;" d="M397.463,130.696H227.326c-0.063,0-0.126-0.004-0.189-0.005l-14.656,14.656
			c-51.988-19.552-112.889-8.414-154.72,33.417c-57.015,57.015-57.015,149.454,0,206.468c57.015,57.015,149.454,57.015,206.468,0
			c41.832-41.831,52.97-102.732,33.418-154.72L397.463,130.696z"/>
	</g>
	<path id="XMLID_1679_" style="fill:#ED539D;" d="M297.647,230.512l99.816-99.816h-85.166L57.761,385.233
		c57.015,57.015,149.454,57.015,206.468,0C306.061,343.401,317.199,282.501,297.647,230.512z"/>
	<g id="XMLID_875_">
		<path id="XMLID_1676_" style="fill:#96C8EF;" d="M160.995,442.994c-43.003,0-83.433-16.747-113.84-47.155
			C16.747,365.431,0,325.002,0,281.999c0-43.004,16.747-83.434,47.155-113.841c30.407-30.407,70.835-47.153,113.837-47.153
			c16.203,0,32.134,2.395,47.489,7.13l99.201-99.201c5.857-5.857,15.355-5.857,21.213,0l85.165,85.165
			c5.858,5.857,5.858,15.355,0,21.213l-99.203,99.203c17.448,56.677,2.25,119.053-40.022,161.324
			C244.429,426.247,203.999,442.994,160.995,442.994z M160.992,151.005c-34.988,0-67.883,13.626-92.624,38.366
			C43.626,214.113,30,247.009,30,281.999s13.626,67.886,38.368,92.627c24.741,24.742,57.637,38.368,92.627,38.368
			s67.886-13.626,92.628-38.368c36.286-36.287,48.056-90.781,29.983-138.833c-2.072-5.511-0.729-11.724,3.434-15.887l95.201-95.201
			l-63.952-63.952l-95.201,95.201c-4.162,4.162-10.376,5.507-15.887,3.434C192.412,153.825,176.865,151.005,160.992,151.005z"/>
	</g>
	<path id="XMLID_876_" style="fill:#F072AE;" d="M429.186,205.18c-2.788-4.137-7.45-6.616-12.438-6.616
		c-4.988,0-9.65,2.479-12.439,6.616c-8.814,13.076-29.315,45.377-29.315,62.849c0,23.022,18.731,41.753,41.753,41.753
		s41.753-18.73,41.753-41.753C458.5,250.557,437.999,218.257,429.186,205.18z"/>
	<path id="XMLID_1673_" style="fill:#78B9EB;" d="M314.858,234.514l99.203-99.203c5.858-5.858,5.858-15.355,0-21.213l-42.582-42.582
		l-21.213,21.213l31.976,31.976l-95.201,95.201c-4.163,4.163-5.506,10.376-3.434,15.887c18.072,48.052,6.303,102.546-29.983,138.833
		c-24.742,24.742-57.638,38.368-92.628,38.368s-67.885-13.626-92.627-38.368l-21.213,21.213
		c30.407,30.408,70.837,47.155,113.839,47.155c43.004,0,83.434-16.747,113.841-47.155
		C317.108,353.567,332.306,291.191,314.858,234.514z"/>
	<g id="XMLID_879_">
		<path id="XMLID_1672_" style="fill:#78B9EB;" d="M412.487,148.738c-3.839,0-7.678-1.465-10.607-4.394L298.65,41.114
			c-5.858-5.857-5.858-15.355,0-21.213c5.857-5.858,15.355-5.858,21.213,0l103.231,103.23c5.858,5.857,5.858,15.355,0,21.213
			C420.165,147.273,416.326,148.738,412.487,148.738z"/>
	</g>
	<path id="XMLID_1670_" style="fill:#5AAAE7;" d="M423.094,123.132l-51.616-51.615L350.265,92.73l51.616,51.615
		c2.929,2.929,6.768,4.394,10.607,4.394s7.678-1.465,10.606-4.394C428.952,138.487,428.952,128.989,423.094,123.132z"/>
	<path id="XMLID_880_" style="fill:#ED539D;" d="M429.186,205.18c-2.788-4.137-7.45-6.616-12.438-6.616v111.218
		c23.022,0,41.753-18.73,41.753-41.753C458.5,250.557,437.999,218.257,429.186,205.18z"/>
</g>
<g>
</g>
<g>
</g>
<g>
</g>
<g>
</g>
<g>
</g>
<g>
</g>
<g>
</g>
<g>
</g>
<g>
</g>
<g>
</g>
<g>
</g>
<g>
</g>
<g>
</g>
<g>
</g>
<g>
</g>
</svg>
