<?xml version="1.0" encoding="iso-8859-1"?>
<!-- Generator: Adobe Illustrator 19.0.0, SVG Export Plug-In . SVG Version: 6.00 Build 0)  -->
<svg version="1.1" id="Layer_1" xmlns="http://www.w3.org/2000/svg" xmlns:xlink="http://www.w3.org/1999/xlink" x="0px" y="0px"
	 viewBox="0 0 459.784 459.784" style="enable-background:new 0 0 459.784 459.784;" xml:space="preserve">
<g id="XMLID_1526_">
	<g id="XMLID_462_">
		<path id="XMLID_463_" style="fill:#787680;" d="M266.523,408.944c-4.544,0-9.033-2.057-11.982-5.962L86.493,180.403
			c-4.992-6.611-3.679-16.018,2.933-21.009c6.61-4.992,16.017-3.679,21.009,2.933l168.047,222.578
			c4.992,6.611,3.679,16.017-2.933,21.009C272.844,407.956,269.67,408.944,266.523,408.944z"/>
	</g>
	<g id="XMLID_464_">
		<path id="XMLID_466_" style="fill:#C6C5CA;" d="M95.482,182.436c-6.361,0-12.266-4.079-14.293-10.466
			c-2.506-7.896,1.863-16.329,9.759-18.835L356.79,68.752c7.897-2.508,16.33,1.862,18.835,9.759
			c2.506,7.896-1.863,16.329-9.759,18.835l-265.842,84.383C98.515,182.208,96.986,182.436,95.482,182.436z"/>
	</g>
	<g id="XMLID_467_">
		<path id="XMLID_1841_" style="fill:#FFD422;" d="M164.696,121.347c27.627,36.579,20.357,88.646-16.229,116.251
			c-36.587,27.634-88.639,20.357-116.25-16.222C4.59,184.782,11.86,132.752,48.445,105.118
			C85.016,77.499,137.085,84.769,164.696,121.347z"/>
	</g>
	<g id="XMLID_1349_">
		<path id="XMLID_1350_" style="fill:#EEBF00;" d="M133.449,144.939c14.595,19.324,10.755,46.831-8.574,61.414
			c-19.328,14.599-46.827,10.754-61.413-8.57c-14.595-19.332-10.754-46.819,8.573-61.418
			C91.355,121.774,118.862,125.615,133.449,144.939z"/>
	</g>
	<g id="XMLID_486_">
		<path id="XMLID_1837_" style="fill:#1A6FB0;" d="M319.043,354.274c21.898,29.033,16.17,70.294-12.863,92.213
			c-29.033,21.913-70.302,16.139-92.214-12.878c-21.898-29.033-16.154-70.3,12.863-92.206
			C255.862,319.49,297.131,325.264,319.043,354.274z"/>
	</g>
	<g id="XMLID_1405_">
		<path id="XMLID_1406_" style="fill:#165C92;" d="M292.925,373.996c11.012,14.599,8.131,35.348-6.468,46.37
			c-14.599,11.019-35.352,8.116-46.37-6.476c-11.012-14.599-8.123-35.351,6.468-46.366
			C261.154,356.504,281.906,359.408,292.925,373.996z"/>
	</g>
	<g id="XMLID_487_">
		<path id="XMLID_1833_" style="fill:#5EAC24;" d="M386.427,162.137c-43.675,13.887-90.328-10.291-104.194-53.99
			c-13.895-43.691,10.276-90.351,53.982-104.232C379.906-9.958,426.573,14.206,440.41,57.92
			C454.305,101.603,430.134,148.263,386.427,162.137z"/>
	</g>
	<g id="XMLID_1377_">
		<path id="XMLID_1378_" style="fill:#47821C;" d="M376.116,129.651c-25.741,8.185-53.236-6.065-61.408-31.819
			c-8.189-25.75,6.056-53.249,31.815-61.43c25.75-8.176,53.254,6.065,61.409,31.828C416.121,93.975,401.876,121.474,376.116,129.651
			z"/>
	</g>
</g>
<g>
</g>
<g>
</g>
<g>
</g>
<g>
</g>
<g>
</g>
<g>
</g>
<g>
</g>
<g>
</g>
<g>
</g>
<g>
</g>
<g>
</g>
<g>
</g>
<g>
</g>
<g>
</g>
<g>
</g>
</svg>
