<?xml version="1.0" encoding="iso-8859-1"?>
<!-- Generator: Adobe Illustrator 19.0.0, SVG Export Plug-In . SVG Version: 6.00 Build 0)  -->
<svg version="1.1" id="Layer_1" xmlns="http://www.w3.org/2000/svg" xmlns:xlink="http://www.w3.org/1999/xlink" x="0px" y="0px"
	 viewBox="0 0 463.08 463.08" style="enable-background:new 0 0 463.08 463.08;" xml:space="preserve">
<g id="XMLID_804_">
	<path id="XMLID_1165_" style="fill:#1E81CE;" d="M417.741,0H83.062c-8.284,0-15,6.716-15,15v433.08c0,8.284,6.716,15,15,15h334.679
		c8.284,0,15-6.716,15-15V15C432.741,6.716,426.025,0,417.741,0z"/>
	<circle id="XMLID_803_" style="fill:#1A6FB0;" cx="109.339" cy="57.875" r="19.838"/>
	<circle id="XMLID_1193_" style="fill:#1A6FB0;" cx="109.339" cy="144.54" r="19.838"/>
	<circle id="XMLID_1194_" style="fill:#1A6FB0;" cx="109.339" cy="231.205" r="19.838"/>
	<circle id="XMLID_1195_" style="fill:#1A6FB0;" cx="109.339" cy="317.871" r="19.838"/>
	<circle id="XMLID_1197_" style="fill:#1A6FB0;" cx="109.339" cy="404.536" r="19.838"/>
	<path id="XMLID_1207_" style="fill:#515056;" d="M116.339,231.54c0-8.284-6.716-15-15-15h-56c-8.284,0-15,6.716-15,15
		s6.716,15,15,15h56C109.623,246.54,116.339,239.824,116.339,231.54z"/>
	<path id="XMLID_1206_" style="fill:#515056;" d="M116.339,57.54c0-8.284-6.716-15-15-15h-56c-8.284,0-15,6.716-15,15
		s6.716,15,15,15h56C109.623,72.54,116.339,65.824,116.339,57.54z"/>
	<path id="XMLID_1201_" style="fill:#515056;" d="M116.339,144.54c0-8.284-6.716-15-15-15h-56c-8.284,0-15,6.716-15,15
		s6.716,15,15,15h56C109.623,159.54,116.339,152.824,116.339,144.54z"/>
	<path id="XMLID_1200_" style="fill:#515056;" d="M116.339,318.54c0-8.284-6.716-15-15-15h-56c-8.284,0-15,6.716-15,15
		s6.716,15,15,15h56C109.623,333.54,116.339,326.824,116.339,318.54z"/>
	<path id="XMLID_1198_" style="fill:#515056;" d="M116.339,405.54c0-8.284-6.716-15-15-15h-56c-8.284,0-15,6.716-15,15
		s6.716,15,15,15h56C109.623,420.54,116.339,413.824,116.339,405.54z"/>
	<path id="XMLID_235_" style="fill:#1A6FB0;" d="M417.741,0H270.975v463.08h146.766c8.284,0,15-6.716,15-15V15
		C432.741,6.716,426.025,0,417.741,0z"/>
	<g id="XMLID_802_">
		<path style="fill:#1A6FB0;" d="M360.537,209.82H181.413c-4.554,0-8.246-3.692-8.246-8.246v-96.069
			c0-4.554,3.692-8.246,8.246-8.246h179.124c4.554,0,8.246,3.692,8.246,8.246v96.069C368.783,206.129,365.091,209.82,360.537,209.82
			z"/>
	</g>
	<g id="XMLID_1192_">
		<path style="fill:#96C8EF;" d="M360.537,200.82H181.413c-4.554,0-8.246-3.692-8.246-8.246V96.506c0-4.554,3.692-8.246,8.246-8.246
			h179.124c4.554,0,8.246,3.692,8.246,8.246v96.069C368.783,197.129,365.091,200.82,360.537,200.82z"/>
	</g>
	<g id="XMLID_1191_">
		<path style="fill:#5AAAE7;" d="M360.366,88.26h-89.391v112.56h89.391c4.648,0,8.416-3.768,8.416-8.416V96.676
			C368.783,92.028,365.015,88.26,360.366,88.26z"/>
	</g>
</g>
<g>
</g>
<g>
</g>
<g>
</g>
<g>
</g>
<g>
</g>
<g>
</g>
<g>
</g>
<g>
</g>
<g>
</g>
<g>
</g>
<g>
</g>
<g>
</g>
<g>
</g>
<g>
</g>
<g>
</g>
</svg>
