<?xml version="1.0" encoding="iso-8859-1"?>
<!-- Generator: Adobe Illustrator 19.0.0, SVG Export Plug-In . SVG Version: 6.00 Build 0)  -->
<svg version="1.1" id="Layer_1" xmlns="http://www.w3.org/2000/svg" xmlns:xlink="http://www.w3.org/1999/xlink" x="0px" y="0px"
	 viewBox="0 0 449.239 449.239" style="enable-background:new 0 0 449.239 449.239;" xml:space="preserve">
<g id="XMLID_1554_">
	<g id="XMLID_1577_">
		<path style="fill:#FFA733;" d="M12.994,2.23c-2.177-2.177-5.451-2.828-8.295-1.65S0,4.533,0,7.612v428.779
			c0,7.095,5.752,12.848,12.848,12.848h428.779c3.079,0,5.854-1.855,7.032-4.699s0.527-6.118-1.65-8.295L12.994,2.23z
			 M92.639,208.589l149.075,149.075H92.639V208.589z"/>
	</g>
	<g id="XMLID_1235_">
		<path id="XMLID_1233_" style="fill:#EE8700;" d="M217.674,420.102c-7.229,0-13.09,5.861-13.09,13.09v16.047h26.18v-16.047
			C230.764,425.962,224.903,420.102,217.674,420.102z"/>
		<path id="XMLID_1232_" style="fill:#EE8700;" d="M268.87,420.102c-7.229,0-13.09,5.861-13.09,13.09v16.047h26.18v-16.047
			C281.961,425.962,276.1,420.102,268.87,420.102z"/>
		<path id="XMLID_1231_" style="fill:#EE8700;" d="M320.067,420.102c-7.229,0-13.09,5.861-13.09,13.09v16.047h26.18v-16.047
			C333.157,425.962,327.297,420.102,320.067,420.102z"/>
		<path id="XMLID_1230_" style="fill:#EE8700;" d="M371.264,420.102c-7.229,0-13.09,5.861-13.09,13.09v16.047h26.18v-16.047
			C384.354,425.962,378.494,420.102,371.264,420.102z"/>
		<path id="XMLID_1229_" style="fill:#EE8700;" d="M64.084,420.102c-7.229,0-13.09,5.861-13.09,13.09v16.047h26.18v-16.047
			C77.174,425.962,71.313,420.102,64.084,420.102z"/>
		<path id="XMLID_1228_" style="fill:#EE8700;" d="M102.19,433.192v16.047h26.18v-16.047c0-7.229-5.861-13.09-13.09-13.09
			S102.19,425.962,102.19,433.192z"/>
		<path id="XMLID_1227_" style="fill:#EE8700;" d="M179.567,449.238v-16.047c0-7.229-5.861-13.09-13.09-13.09
			c-7.229,0-13.09,5.861-13.09,13.09v16.047H179.567z"/>
	</g>
	<g id="XMLID_1566_">
		<path style="fill:#EA8E21;" d="M0,7.612v428.779c0,3.548,1.438,6.759,3.763,9.084l88.876-88.876v-148.01l74.005,74.005
			l63.357-63.357L12.994,2.23c-2.177-2.177-5.451-2.828-8.295-1.65S0,4.533,0,7.612z"/>
	</g>
	<polygon id="XMLID_932_" style="fill:#DD7800;" points="92.639,208.589 43.236,92.617 362.236,404.406 241.714,357.664 	"/>
	<polygon id="XMLID_933_" style="fill:#FFA733;" points="44.833,96.365 44.833,404.406 92.639,356.599 92.639,208.589 	"/>
	<polygon id="XMLID_934_" style="fill:#EA8E21;" points="44.833,404.406 362.236,404.406 241.714,357.664 92.639,356.599 	"/>
</g>
<g>
</g>
<g>
</g>
<g>
</g>
<g>
</g>
<g>
</g>
<g>
</g>
<g>
</g>
<g>
</g>
<g>
</g>
<g>
</g>
<g>
</g>
<g>
</g>
<g>
</g>
<g>
</g>
<g>
</g>
</svg>
