<?xml version="1.0" encoding="iso-8859-1"?>
<!-- Generator: Adobe Illustrator 19.0.0, SVG Export Plug-In . SVG Version: 6.00 Build 0)  -->
<svg version="1.1" id="Layer_1" xmlns="http://www.w3.org/2000/svg" xmlns:xlink="http://www.w3.org/1999/xlink" x="0px" y="0px"
	 viewBox="0 0 449.241 449.241" style="enable-background:new 0 0 449.241 449.241;" xml:space="preserve">
<g id="XMLID_1581_">
	<path id="XMLID_519_" style="fill:#9CDD05;" d="M292.907,225.048c0,56.391,25.507,106.929,65.581,140.708
		c7.259-6.888,13.982-14.333,20.115-22.258c-34.006-28.271-55.696-70.874-55.696-118.45c0-47.763,21.856-90.517,56.093-118.786
		c-6.106-7.945-12.801-15.415-20.035-22.326C318.616,117.716,292.907,168.433,292.907,225.048z"/>
	<path id="XMLID_520_" style="fill:#C2FB3B;" d="M70.24,106.263c34.237,28.269,56.093,71.023,56.093,118.786
		c0,47.576-21.689,90.179-55.696,118.45c6.133,7.925,12.856,15.37,20.115,22.258c40.073-33.779,65.581-84.317,65.581-140.708
		c0-56.615-25.709-107.332-66.058-141.112C83.04,90.848,76.346,98.317,70.24,106.263z"/>
	<path id="XMLID_521_" style="fill:#9CDD05;" d="M404.024,89.418c-6.114-8.078-12.805-15.8-20.067-23.108
		c-0.171-0.172-0.335-0.348-0.507-0.519c-42.425-42.425-98.832-65.79-158.83-65.79S108.215,23.366,65.79,65.791
		c-0.171,0.171-0.336,0.347-0.507,0.519c-7.262,7.308-13.953,15.03-20.067,23.108C15.884,128.171,0,175.173,0,224.621
		c0,49.708,16.052,96.943,45.68,135.812c6.133,8.046,12.834,15.742,20.11,23.018c0.007,0.007,0.015,0.014,0.022,0.021
		c42.423,42.411,98.82,65.768,158.808,65.768s116.386-23.357,158.809-65.768c0.007-0.007,0.015-0.014,0.022-0.021
		c7.276-7.276,13.977-14.972,20.11-23.018c29.627-38.869,45.68-86.104,45.68-135.812C449.24,175.173,433.356,128.171,404.024,89.418
		z M90.752,365.756c-7.259-6.888-13.982-14.333-20.115-22.258c34.006-28.271,55.696-70.874,55.696-118.45
		c0-47.763-21.856-90.517-56.093-118.786c6.106-7.945,12.8-15.415,20.035-22.326c40.349,33.78,66.058,84.497,66.058,141.112
		C156.333,281.439,130.826,331.977,90.752,365.756z M358.487,365.756c-40.073-33.779-65.581-84.317-65.581-140.708
		c0-56.615,25.709-107.332,66.058-141.112c7.234,6.912,13.929,14.381,20.035,22.326c-34.237,28.269-56.093,71.023-56.093,118.786
		c0,47.576,21.689,90.178,55.696,118.45C372.47,351.423,365.746,358.868,358.487,365.756z"/>
	<path id="XMLID_525_" style="fill:#91CC04;" d="M404.024,89.418c-6.114-8.078-12.805-15.8-20.067-23.108
		c-0.171-0.172-0.335-0.348-0.507-0.519c-42.425-42.425-98.832-65.789-158.83-65.79v449.24c59.988,0,116.386-23.357,158.808-65.768
		c0.007-0.007,0.015-0.014,0.022-0.021c7.276-7.276,13.977-14.972,20.11-23.018c29.627-38.869,45.68-86.104,45.68-135.812
		C449.24,175.173,433.356,128.171,404.024,89.418z M378.602,343.498c-6.132,7.925-12.856,15.37-20.115,22.258
		c-40.073-33.779-65.581-84.317-65.581-140.708c0-56.615,25.709-107.332,66.058-141.112c7.234,6.912,13.929,14.381,20.035,22.326
		c-34.237,28.269-56.093,71.023-56.093,118.786C322.907,272.624,344.596,315.227,378.602,343.498z"/>
</g>
<g>
</g>
<g>
</g>
<g>
</g>
<g>
</g>
<g>
</g>
<g>
</g>
<g>
</g>
<g>
</g>
<g>
</g>
<g>
</g>
<g>
</g>
<g>
</g>
<g>
</g>
<g>
</g>
<g>
</g>
</svg>
